# xmcd
#
# Track frame offsets:
#	150
#	18796
#	37935
#	54660
#	72190
#	91538
#	110618
#	131963
#	146137
#	162777
#	183005
#	202419
#	218815
#
# Disc length: 3097 seconds
#
# Revision: 3
# Processed by: cddbd v1.5.2PL0 Copyright (c) Steve Scherf et al.
# Submitted via: EasyCDDAExtractor 15.3.0.1
#
DISCID=b60c170d
DTITLE=Grupo Mania - Hombres De Honor
DYEAR=2003
DGENRE=Latin
TTITLE0=Sube, Sube
TTITLE1=Ruben
TTITLE2=Te Lo Presento
TTITLE3=Sacala, Bailala Y Pegala
TTITLE4=Te Veo Venir Soledad
TTITLE5=Madre Mia
TTITLE6=Telefono
TTITLE7=Tu Ritmo Me Tumba
TTITLE8=La Mania Que Yo Te Pego
TTITLE9=Chiquilla
TTITLE10=Me Fallaste
TTITLE11=Tu Quieres Mas De Mi
TTITLE12=Sube, Sube (Dance)
EXTD=
EXTT0=
EXTT1=
EXTT2=
EXTT3=
EXTT4=
EXTT5=
EXTT6=
EXTT7=
EXTT8=
EXTT9=
EXTT10=
EXTT11=
EXTT12=
PLAYORDER=
